<svg width="472" height="687" viewBox="0 0 472 687" fill="none" xmlns="http://www.w3.org/2000/svg">
<path fill-rule="evenodd" clip-rule="evenodd" d="M281.193 0C281.315 37.3003 298.57 74.5318 326.983 98.7765C338.003 108.177 350.783 115.967 365.448 124.361C367.626 125.608 369.861 126.875 372.139 128.168C384.6 135.237 398.362 143.045 411.163 152.113C441.361 173.506 474.973 211.504 470.65 258.889C467.769 290.544 448.427 315.887 429.54 333.268C390.112 369.561 339.131 387.547 292.287 399.485L292.279 399.487C276.733 403.443 261.792 406.789 247.283 410.038C216.19 417.001 187.08 423.52 158.255 434.645L158.248 434.648C117.192 450.479 81.6023 475.597 64.096 510.02L64.0947 510.023C40.7754 555.863 50.1003 613.286 65.1739 674.216L16.6371 686.223C1.98485 626.997 -13.2676 551.826 19.5283 487.355C44.8302 437.603 93.2052 406.14 140.259 387.996C172.639 375.5 207.702 367.627 240.534 360.255C254.174 357.193 267.43 354.216 279.948 351.031C324.609 339.65 365.62 324.148 395.68 296.478L395.682 296.477C410.44 282.895 419.593 268.239 420.856 254.357L420.857 254.351C422.716 233.984 407.563 210.838 382.26 192.913C371.686 185.422 360.446 179.036 347.961 171.942C345.558 170.577 343.109 169.186 340.61 167.756C325.704 159.224 309.382 149.484 294.53 136.813L294.528 136.812C255.038 103.115 231.363 52.0583 231.193 0.163367L281.193 0Z" fill="#D9DCD5"/>
</svg>
