<svg width="279" height="679" viewBox="0 0 279 679" fill="none" xmlns="http://www.w3.org/2000/svg">
<path fill-rule="evenodd" clip-rule="evenodd" d="M78.3267 124.539C42.4778 98.058 3.38519 56.5635 0.971191 2.55792L50.9213 0.325195C52.2958 31.0747 75.6625 60.41 108.039 84.3247L108.046 84.3293C119.205 92.5771 130.506 99.8832 142.518 107.649C148.178 111.307 153.995 115.068 160.029 119.077C178.133 131.106 197.041 144.683 213.721 161.831C213.722 161.832 213.723 161.833 213.724 161.834C263.129 212.615 283.041 285.714 276.999 353.605C270.648 424.97 225.234 468.353 187.547 504.356C182.571 509.109 177.73 513.734 173.132 518.277C152.401 538.758 135.458 558.01 125.067 581.026C115.003 603.319 110.33 630.923 117.731 669.188L68.6411 678.683C59.4562 631.199 64.8071 592.99 79.4954 560.453C93.8573 528.64 116.395 504.045 137.991 482.708C143.216 477.546 148.356 472.572 153.367 467.721C191.732 430.589 222.61 400.702 227.196 349.173C232.196 292.988 215.324 235.179 177.884 196.699L177.882 196.696C164.982 183.434 149.639 172.204 132.36 160.723C127.452 157.463 122.258 154.103 116.918 150.649C104.26 142.461 90.778 133.741 78.3328 124.543C78.3308 124.542 78.3287 124.54 78.3267 124.539Z" fill="#D9DCD5"/>
</svg>
